<mxfile host="app.diagrams.net" modified="2023-12-31T10:17:39.664Z" agent="Mozilla/5.0 (Windows NT 10.0; Win64; x64) AppleWebKit/537.36 (KHTML, like Gecko) Chrome/120.0.0.0 Safari/537.36" etag="a4fgBDLNIp0OymR4x5mK" version="22.1.16" type="github">
  <diagram name="第 1 页" id="KSkySuiAW4uRuVbdFJsD">
    <mxGraphModel dx="1050" dy="522" grid="1" gridSize="10" guides="1" tooltips="1" connect="1" arrows="1" fold="1" page="1" pageScale="1" pageWidth="827" pageHeight="1169" math="0" shadow="0">
      <root>
        <mxCell id="0" />
        <mxCell id="1" parent="0" />
        <mxCell id="hx_YZA_IsBVvWz8jXXsm-29" style="edgeStyle=orthogonalEdgeStyle;rounded=0;orthogonalLoop=1;jettySize=auto;html=1;exitX=0.5;exitY=1;exitDx=0;exitDy=0;exitPerimeter=0;entryX=0.5;entryY=0;entryDx=0;entryDy=0;" edge="1" parent="1" source="hx_YZA_IsBVvWz8jXXsm-2" target="hx_YZA_IsBVvWz8jXXsm-5">
          <mxGeometry relative="1" as="geometry" />
        </mxCell>
        <mxCell id="hx_YZA_IsBVvWz8jXXsm-2" value="開始" style="strokeWidth=1;html=1;shape=mxgraph.flowchart.start_1;whiteSpace=wrap;" vertex="1" parent="1">
          <mxGeometry x="360" y="20" width="120" height="60" as="geometry" />
        </mxCell>
        <mxCell id="hx_YZA_IsBVvWz8jXXsm-3" value="開始" style="strokeWidth=1;html=1;shape=mxgraph.flowchart.terminator;whiteSpace=wrap;strokeColor=default;" vertex="1" parent="1">
          <mxGeometry x="360" y="520" width="120" height="60" as="geometry" />
        </mxCell>
        <mxCell id="hx_YZA_IsBVvWz8jXXsm-30" style="edgeStyle=orthogonalEdgeStyle;rounded=0;orthogonalLoop=1;jettySize=auto;html=1;exitX=0.5;exitY=1;exitDx=0;exitDy=0;entryX=0.5;entryY=0;entryDx=0;entryDy=0;" edge="1" parent="1" source="hx_YZA_IsBVvWz8jXXsm-5" target="hx_YZA_IsBVvWz8jXXsm-23">
          <mxGeometry relative="1" as="geometry" />
        </mxCell>
        <mxCell id="hx_YZA_IsBVvWz8jXXsm-5" value="用戶登錄" style="rounded=0;whiteSpace=wrap;html=1;" vertex="1" parent="1">
          <mxGeometry x="360" y="100" width="120" height="40" as="geometry" />
        </mxCell>
        <mxCell id="hx_YZA_IsBVvWz8jXXsm-33" style="edgeStyle=orthogonalEdgeStyle;rounded=0;orthogonalLoop=1;jettySize=auto;html=1;exitX=0.5;exitY=1;exitDx=0;exitDy=0;entryX=0.5;entryY=0;entryDx=0;entryDy=0;" edge="1" parent="1" source="hx_YZA_IsBVvWz8jXXsm-9" target="hx_YZA_IsBVvWz8jXXsm-25">
          <mxGeometry relative="1" as="geometry" />
        </mxCell>
        <mxCell id="hx_YZA_IsBVvWz8jXXsm-38" style="edgeStyle=orthogonalEdgeStyle;rounded=0;orthogonalLoop=1;jettySize=auto;html=1;exitX=1;exitY=0.5;exitDx=0;exitDy=0;entryX=0;entryY=0.5;entryDx=0;entryDy=0;" edge="1" parent="1" source="hx_YZA_IsBVvWz8jXXsm-9" target="hx_YZA_IsBVvWz8jXXsm-27">
          <mxGeometry relative="1" as="geometry" />
        </mxCell>
        <mxCell id="hx_YZA_IsBVvWz8jXXsm-9" value="內容完整" style="rhombus;whiteSpace=wrap;html=1;" vertex="1" parent="1">
          <mxGeometry x="360" y="280" width="120" height="60" as="geometry" />
        </mxCell>
        <mxCell id="hx_YZA_IsBVvWz8jXXsm-15" value="提交成功" style="rounded=0;whiteSpace=wrap;html=1;" vertex="1" parent="1">
          <mxGeometry x="360" y="460" width="120" height="40" as="geometry" />
        </mxCell>
        <mxCell id="hx_YZA_IsBVvWz8jXXsm-31" style="edgeStyle=orthogonalEdgeStyle;rounded=0;orthogonalLoop=1;jettySize=auto;html=1;exitX=0.5;exitY=1;exitDx=0;exitDy=0;entryX=0.5;entryY=0;entryDx=0;entryDy=0;" edge="1" parent="1" source="hx_YZA_IsBVvWz8jXXsm-23" target="hx_YZA_IsBVvWz8jXXsm-24">
          <mxGeometry relative="1" as="geometry" />
        </mxCell>
        <mxCell id="hx_YZA_IsBVvWz8jXXsm-23" value="選擇火車車次" style="rounded=0;whiteSpace=wrap;html=1;" vertex="1" parent="1">
          <mxGeometry x="360" y="160" width="120" height="40" as="geometry" />
        </mxCell>
        <mxCell id="hx_YZA_IsBVvWz8jXXsm-32" style="edgeStyle=orthogonalEdgeStyle;rounded=0;orthogonalLoop=1;jettySize=auto;html=1;exitX=0.5;exitY=1;exitDx=0;exitDy=0;entryX=0.5;entryY=0;entryDx=0;entryDy=0;" edge="1" parent="1" source="hx_YZA_IsBVvWz8jXXsm-24" target="hx_YZA_IsBVvWz8jXXsm-9">
          <mxGeometry relative="1" as="geometry" />
        </mxCell>
        <mxCell id="hx_YZA_IsBVvWz8jXXsm-24" value="填寫訂票信息" style="rounded=0;whiteSpace=wrap;html=1;" vertex="1" parent="1">
          <mxGeometry x="360" y="220" width="120" height="40" as="geometry" />
        </mxCell>
        <mxCell id="hx_YZA_IsBVvWz8jXXsm-35" style="edgeStyle=orthogonalEdgeStyle;rounded=0;orthogonalLoop=1;jettySize=auto;html=1;exitX=0.5;exitY=1;exitDx=0;exitDy=0;entryX=0.5;entryY=0;entryDx=0;entryDy=0;" edge="1" parent="1" source="hx_YZA_IsBVvWz8jXXsm-25" target="hx_YZA_IsBVvWz8jXXsm-15">
          <mxGeometry relative="1" as="geometry" />
        </mxCell>
        <mxCell id="hx_YZA_IsBVvWz8jXXsm-39" style="edgeStyle=orthogonalEdgeStyle;rounded=0;orthogonalLoop=1;jettySize=auto;html=1;exitX=1;exitY=0.5;exitDx=0;exitDy=0;entryX=0;entryY=0.5;entryDx=0;entryDy=0;" edge="1" parent="1" source="hx_YZA_IsBVvWz8jXXsm-25" target="hx_YZA_IsBVvWz8jXXsm-26">
          <mxGeometry relative="1" as="geometry" />
        </mxCell>
        <mxCell id="hx_YZA_IsBVvWz8jXXsm-25" value="格式是否正確" style="rhombus;whiteSpace=wrap;html=1;" vertex="1" parent="1">
          <mxGeometry x="350" y="360" width="140" height="80" as="geometry" />
        </mxCell>
        <mxCell id="hx_YZA_IsBVvWz8jXXsm-42" style="edgeStyle=orthogonalEdgeStyle;rounded=0;orthogonalLoop=1;jettySize=auto;html=1;exitX=1;exitY=0.5;exitDx=0;exitDy=0;entryX=1;entryY=0.5;entryDx=0;entryDy=0;" edge="1" parent="1" source="hx_YZA_IsBVvWz8jXXsm-26" target="hx_YZA_IsBVvWz8jXXsm-24">
          <mxGeometry relative="1" as="geometry">
            <mxPoint x="670" y="240" as="targetPoint" />
          </mxGeometry>
        </mxCell>
        <mxCell id="hx_YZA_IsBVvWz8jXXsm-26" value="格式錯誤" style="rounded=0;whiteSpace=wrap;html=1;" vertex="1" parent="1">
          <mxGeometry x="520" y="380" width="120" height="40" as="geometry" />
        </mxCell>
        <mxCell id="hx_YZA_IsBVvWz8jXXsm-44" style="edgeStyle=orthogonalEdgeStyle;rounded=0;orthogonalLoop=1;jettySize=auto;html=1;exitX=0.5;exitY=0;exitDx=0;exitDy=0;" edge="1" parent="1" source="hx_YZA_IsBVvWz8jXXsm-27">
          <mxGeometry relative="1" as="geometry">
            <mxPoint x="580" y="240" as="targetPoint" />
          </mxGeometry>
        </mxCell>
        <mxCell id="hx_YZA_IsBVvWz8jXXsm-27" value="信息較少" style="rounded=0;whiteSpace=wrap;html=1;" vertex="1" parent="1">
          <mxGeometry x="520" y="290" width="120" height="40" as="geometry" />
        </mxCell>
        <mxCell id="hx_YZA_IsBVvWz8jXXsm-34" value="Y" style="text;html=1;align=center;verticalAlign=middle;resizable=0;points=[];autosize=1;strokeColor=none;fillColor=none;" vertex="1" parent="1">
          <mxGeometry x="390" y="330" width="30" height="30" as="geometry" />
        </mxCell>
        <mxCell id="hx_YZA_IsBVvWz8jXXsm-36" value="Y" style="text;html=1;align=center;verticalAlign=middle;resizable=0;points=[];autosize=1;strokeColor=none;fillColor=none;" vertex="1" parent="1">
          <mxGeometry x="390" y="430" width="30" height="30" as="geometry" />
        </mxCell>
        <mxCell id="hx_YZA_IsBVvWz8jXXsm-37" style="edgeStyle=orthogonalEdgeStyle;rounded=0;orthogonalLoop=1;jettySize=auto;html=1;exitX=0.5;exitY=1;exitDx=0;exitDy=0;entryX=0.5;entryY=0;entryDx=0;entryDy=0;entryPerimeter=0;" edge="1" parent="1" source="hx_YZA_IsBVvWz8jXXsm-15" target="hx_YZA_IsBVvWz8jXXsm-3">
          <mxGeometry relative="1" as="geometry" />
        </mxCell>
        <mxCell id="hx_YZA_IsBVvWz8jXXsm-40" value="N" style="text;html=1;align=center;verticalAlign=middle;resizable=0;points=[];autosize=1;strokeColor=none;fillColor=none;" vertex="1" parent="1">
          <mxGeometry x="480" y="280" width="30" height="30" as="geometry" />
        </mxCell>
        <mxCell id="hx_YZA_IsBVvWz8jXXsm-41" value="N" style="text;html=1;align=center;verticalAlign=middle;resizable=0;points=[];autosize=1;strokeColor=none;fillColor=none;" vertex="1" parent="1">
          <mxGeometry x="480" y="370" width="30" height="30" as="geometry" />
        </mxCell>
      </root>
    </mxGraphModel>
  </diagram>
</mxfile>
